<svg width="24" height="24" viewBox="0 0 24 24" fill="none" xmlns="http://www.w3.org/2000/svg">
<path d="M9.13626 15.7637V14.9234C8.67219 14.9234 8.29598 15.2996 8.29598 15.7637H9.13626ZM14.1779 15.7637H15.0182C15.0182 15.2996 14.642 14.9234 14.1779 14.9234V15.7637ZM9.13626 16.6039H14.1779V14.9234H9.13626V16.6039ZM13.3377 15.7637V16.6039H15.0182V15.7637H13.3377ZM9.97654 16.6039V15.7637H8.29598V16.6039H9.97654ZM11.6571 18.2845C10.729 18.2845 9.97654 17.5321 9.97654 16.6039H8.29598C8.29598 18.4602 9.8008 19.965 11.6571 19.965V18.2845ZM13.3377 16.6039C13.3377 17.5321 12.5852 18.2845 11.6571 18.2845V19.965C13.5134 19.965 15.0182 18.4602 15.0182 16.6039H13.3377Z" fill="white"/>
<path d="M5.24611 13.8372L4.65195 13.2431H4.65195L5.24611 13.8372ZM5.67535 13.408L6.26951 14.0022L6.26951 14.0022L5.67535 13.408ZM17.7691 13.408L18.3633 12.8138L18.3633 12.8138L17.7691 13.408ZM18.1984 13.8372L18.7925 13.2431L18.7925 13.2431L18.1984 13.8372ZM11.7222 4L11.7222 4.84028L11.7222 4ZM17.6042 14.9236H5.84028V16.6042H17.6042V14.9236ZM5.84028 14.9236V14.4314H4.15972V14.9236H5.84028ZM5.84028 14.4314L6.26951 14.0022L5.08118 12.8138L4.65195 13.2431L5.84028 14.4314ZM6.68056 13.0098V9.88195H5V13.0098H6.68056ZM16.7639 9.88195V13.0098H18.4445V9.88195H16.7639ZM17.1749 14.0021L17.6042 14.4314L18.7925 13.2431L18.3633 12.8138L17.1749 14.0021ZM17.6042 14.4314V14.9236H19.2847V14.4314H17.6042ZM17.6042 14.4314L17.6042 14.4314H19.2847C19.2847 13.9857 19.1077 13.5583 18.7925 13.2431L17.6042 14.4314ZM16.7639 13.0098C16.7639 13.382 16.9117 13.739 17.1749 14.0021L18.3633 12.8138C18.4153 12.8658 18.4445 12.9363 18.4445 13.0098H16.7639ZM18.4445 9.88195C18.4445 6.16936 15.4348 3.15971 11.7222 3.15972L11.7222 4.84028C14.5067 4.84027 16.7639 7.09751 16.7639 9.88195H18.4445ZM6.68056 9.88195C6.68056 7.09752 8.93778 4.84029 11.7222 4.84028L11.7222 3.15972C8.00963 3.15973 5 6.16937 5 9.88195H6.68056ZM6.26951 14.0022C6.5327 13.739 6.68056 13.382 6.68056 13.0098H5C5 12.9363 5.0292 12.8658 5.08118 12.8138L6.26951 14.0022ZM5.84028 14.4314H5.84028L4.65195 13.2431C4.33678 13.5582 4.15972 13.9857 4.15972 14.4314H5.84028ZM5.84028 14.9236H5.84028H4.15972C4.15972 15.8518 4.91213 16.6042 5.84028 16.6042V14.9236ZM17.6042 16.6042C18.5323 16.6042 19.2847 15.8518 19.2847 14.9236H17.6042V16.6042Z" fill="white"/>
</svg>
