<svg width="295" height="88" viewBox="0 0 295 88" fill="none" xmlns="http://www.w3.org/2000/svg">
<path d="M72.0678 0.909099V86H56.5288L19.5092 32.4443H18.886V86H0.895596V0.909099H16.6839L53.4126 54.4233H54.1605V0.909099H72.0678Z" fill="black"/>
<path d="M104.299 49.1051V86H86.5993V0.909099H103.8V33.4414H104.548C105.989 29.6744 108.315 26.7244 111.528 24.5916C114.741 22.4311 118.772 21.3509 123.619 21.3509C128.051 21.3509 131.915 22.3203 135.211 24.2592C138.535 26.1705 141.111 28.9265 142.939 32.5274C144.795 36.1005 145.709 40.38 145.681 45.3658V86H127.981V48.5234C128.009 44.5902 127.012 41.5295 124.99 39.3413C122.996 37.1531 120.198 36.059 116.597 36.059C114.187 36.059 112.055 36.5714 110.199 37.5962C108.371 38.6211 106.93 40.1168 105.878 42.0835C104.853 44.0224 104.327 46.3629 104.299 49.1051ZM200.535 58.8274V22.1818H218.235V86H201.241V74.408H200.577C199.136 78.1474 196.74 81.1527 193.389 83.424C190.065 85.6953 186.007 86.831 181.215 86.831C176.95 86.831 173.196 85.8615 169.956 83.9226C166.715 81.9837 164.18 79.2276 162.352 75.6545C160.552 72.0813 159.638 67.8018 159.61 62.8161V22.1818H177.31V59.6584C177.337 63.4254 178.348 66.4031 180.343 68.5913C182.337 70.7795 185.01 71.8736 188.361 71.8736C190.494 71.8736 192.489 71.3889 194.344 70.4194C196.2 69.4222 197.696 67.9542 198.832 66.0153C199.995 64.0764 200.563 61.6804 200.535 58.8274ZM232.725 86V0.909099H250.424V32.9013H250.964C251.74 31.184 252.862 29.4389 254.33 27.6662C255.826 25.8658 257.764 24.37 260.147 23.179C262.556 21.9602 265.548 21.3509 269.121 21.3509C273.774 21.3509 278.068 22.5696 282.001 25.0071C285.934 27.4169 289.078 31.0593 291.432 35.9343C293.787 40.7816 294.964 46.8615 294.964 54.174C294.964 61.2926 293.815 67.3033 291.516 72.206C289.244 77.081 286.142 80.7788 282.209 83.2994C278.303 85.7923 273.927 87.0387 269.079 87.0387C265.645 87.0387 262.723 86.4709 260.313 85.3352C257.931 84.1996 255.978 82.7731 254.454 81.0558C252.931 79.3107 251.768 77.5518 250.964 75.7791H250.175V86H232.725ZM250.05 54.0909C250.05 57.8857 250.577 61.1957 251.629 64.021C252.682 66.8462 254.205 69.0483 256.199 70.6271C258.194 72.1783 260.617 72.9538 263.47 72.9538C266.351 72.9538 268.789 72.1644 270.783 70.5856C272.777 68.9791 274.287 66.7631 275.312 63.9379C276.364 61.0849 276.89 57.8026 276.89 54.0909C276.89 50.407 276.378 47.1662 275.353 44.3686C274.328 41.571 272.819 39.3828 270.824 37.804C268.83 36.2251 266.379 35.4357 263.47 35.4357C260.59 35.4357 258.152 36.1974 256.158 37.7209C254.191 39.2443 252.682 41.4048 251.629 44.2024C250.577 47 250.05 50.2962 250.05 54.0909Z" fill="#63E17F"/>
</svg>
