<svg width="24" height="19" viewBox="0 0 24 19" fill="none" xmlns="http://www.w3.org/2000/svg">
<g clip-path="url(#clip0_1_29)">
<path d="M14.122 7.82182C15.293 8.71147 15.293 10.1557 14.122 11.0469C12.951 11.9366 11.05 11.9366 9.877 11.0469C8.706 10.1573 8.706 8.71299 9.877 7.82182C11.05 6.93064 12.95 6.93064 14.122 7.82182Z" stroke="#9C98A6" stroke-width="1.5" stroke-linecap="round" stroke-linejoin="round"/>
<path d="M3 9.43247C3 8.9318 3.152 8.43645 3.446 7.97984C4.961 5.62693 8.309 4.11428 12 4.11428C15.691 4.11428 19.039 5.62693 20.554 7.97984C20.848 8.43645 21 8.9318 21 9.43247C21 9.93314 20.848 10.4285 20.554 10.8851C19.039 13.238 15.691 14.7506 12 14.7506C8.309 14.7506 4.961 13.238 3.446 10.8851C3.152 10.4285 3 9.93314 3 9.43247V9.43247Z" stroke="#9C98A6" stroke-width="1.5" stroke-linecap="round" stroke-linejoin="round"/>
</g>
<defs>
<clipPath id="clip0_1_29">
<rect width="24" height="18.2338" fill="white" transform="translate(0 0.315582)"/>
</clipPath>
</defs>
</svg>
