<svg width="800" height="775" viewBox="0 0 800 775" fill="none" xmlns="http://www.w3.org/2000/svg">
<path d="M123.51 726L128.509 739.51L142.019 744.51L128.509 749.509L123.51 763.019L118.51 749.509L105 744.51L118.51 739.51L123.51 726Z" fill="#FAFAFC"/>
<path d="M765 164C706.037 164 658 116.617 658 58C658 -0.412306 705.83 -48 765 -48C823.963 -48 872 -0.616537 872 58C871.794 116.617 823.963 164 765 164Z" stroke="#A06BE4" stroke-width="29" stroke-miterlimit="10" stroke-linecap="round" stroke-linejoin="round"/>
<path d="M415.257 16.4219C410.707 16.4219 407 12.7515 407 8.21096C407 3.68623 410.691 -5.60511e-07 415.257 -3.60925e-07C419.807 -1.62034e-07 423.514 3.67041 423.514 8.21096C423.498 12.7515 419.807 16.4219 415.257 16.4219Z" stroke="#97C3F9" stroke-width="3" stroke-miterlimit="10" stroke-linecap="round" stroke-linejoin="round"/>
<path d="M711 763.5C711 769.851 705.851 775 699.5 775C693.149 775 688 769.851 688 763.5C688 757.149 693.149 752 699.5 752C705.851 752 711 757.149 711 763.5Z" fill="#63E17F"/>
<path d="M25 431L46.6506 466.25H3.34937L25 431Z" fill="#FAFAFC"/>
</svg>
