<svg width="1600" height="920" viewBox="0 0 1600 920" fill="none" xmlns="http://www.w3.org/2000/svg">
<path d="M1565 164C1506.04 164 1458 116.617 1458 58C1458 -0.412306 1505.83 -48 1565 -48C1623.96 -48 1672 -0.616537 1672 58C1671.79 116.617 1623.96 164 1565 164Z" stroke="#A06BE4" stroke-width="29" stroke-miterlimit="10" stroke-linecap="round" stroke-linejoin="round"/>
<path d="M1215.26 16.4219C1210.71 16.4219 1207 12.7515 1207 8.21096C1207 3.68623 1210.69 -5.60511e-07 1215.26 -3.60925e-07C1219.81 -1.62034e-07 1223.51 3.67041 1223.51 8.21096C1223.5 12.7515 1219.81 16.4219 1215.26 16.4219Z" stroke="#97C3F9" stroke-width="3" stroke-miterlimit="10" stroke-linecap="round" stroke-linejoin="round"/>
<circle cx="53" cy="49" r="84.5" stroke="#95BF9E" stroke-width="25"/>
<path d="M98.9952 680.998C98.9952 689.833 91.8328 696.995 82.9976 696.995C74.1624 696.995 67 689.833 67 680.998C67 672.162 74.1624 665 82.9976 665C91.8328 665 98.9952 672.162 98.9952 680.998Z" fill="#95BF9E"/>
<path d="M743.505 907.252C743.505 921.199 732.199 932.505 718.252 932.505C704.306 932.505 693 921.199 693 907.252C693 893.306 704.306 882 718.252 882C732.199 882 743.505 893.306 743.505 907.252Z" fill="#A78AD6"/>
<path d="M1158.51 819L1163.51 832.51L1177.02 837.51L1163.51 842.509L1158.51 856.019L1153.51 842.509L1140 837.51L1153.51 832.51L1158.51 819Z" fill="#FAFAFC"/>
<path fill-rule="evenodd" clip-rule="evenodd" d="M12.0358 890.659C2.09245 897.702 -3.36985 909.673 -5.31269 918.611L-8 918.031C-5.97109 908.697 -0.251419 896 10.443 888.424C21.2713 880.755 36.8893 878.549 58.1429 889.699C64.13 892.84 69.0651 896.551 73.088 900.641C77.4603 898.05 82.7066 896.902 88.8598 897.778C98.0026 899.08 107.102 903.794 115.551 910.322C123.828 916.717 131.557 924.913 138.188 933.54C139.945 928.256 142.227 923.842 145.115 920.792C147.001 918.8 149.173 917.362 151.646 916.678C151.9 916.607 153.577 916.118 155.5 917.88C172.343 933.316 245.436 1012.56 248 1013.39L247.148 1016C244.734 1015.22 154.273 918.795 152.382 919.318C150.485 919.844 148.73 920.968 147.115 922.674C144.292 925.654 141.983 930.321 140.22 936.242C146.238 944.429 151.257 952.904 154.809 960.551C158.643 968.804 160.859 976.282 160.613 981.427C160.376 986.402 159.016 992.03 157.064 997.066C155.12 1002.08 152.529 1006.66 149.729 1009.45C148.334 1010.85 146.77 1011.91 145.099 1012.23C143.332 1012.58 141.632 1012.07 140.181 1010.68C138.789 1009.35 137.64 1007.25 136.711 1004.39C135.774 1001.5 135.023 997.725 134.501 992.93C132.428 973.874 132.992 953.371 136.769 938.429C136.909 937.874 137.054 937.326 137.204 936.786C136.949 936.445 136.692 936.106 136.434 935.766C129.814 927.072 122.091 918.843 113.866 912.488C105.631 906.125 96.972 901.702 88.471 900.492C83.2246 899.745 78.7673 900.623 75.0096 902.701C87.3308 916.627 89.9242 934.359 87.8499 949.005C86.4508 958.884 82.9147 967.505 78.6776 972.717C76.5686 975.311 74.1718 977.2 71.6457 977.83C68.9994 978.491 66.4318 977.715 64.2921 975.449C60.3387 971.262 57.7043 963.96 56.437 955.68C55.1611 947.344 55.2343 937.782 56.8955 928.863C58.5533 919.963 61.8177 911.572 67.0352 905.7C68.1858 904.404 69.4301 903.234 70.7691 902.21C66.9979 898.448 62.4027 895.032 56.8622 892.125C36.3209 881.348 21.8453 883.71 12.0358 890.659ZM72.6702 904.212C71.3858 905.168 70.1951 906.277 69.0936 907.517C64.3293 912.879 61.2064 920.733 59.599 929.364C57.995 937.975 57.9249 947.228 59.1552 955.267C60.3941 963.361 62.9154 969.992 66.2944 973.57C67.821 975.187 69.3921 975.568 70.9778 975.172C72.6835 974.746 74.6117 973.365 76.5413 970.992C80.3814 966.268 83.7767 958.158 85.1273 948.622C87.1329 934.461 84.5995 917.478 72.6702 904.212ZM139.298 939.651C135.751 954.13 135.209 974.013 137.235 992.635C137.744 997.319 138.468 1000.9 139.327 1003.54C140.193 1006.21 141.161 1007.82 142.081 1008.7C142.943 1009.52 143.753 1009.7 144.569 1009.55C145.481 1009.37 146.574 1008.72 147.785 1007.52C150.198 1005.11 152.619 1000.93 154.499 996.079C156.371 991.251 157.646 985.915 157.867 981.297C158.079 976.849 156.113 969.88 152.314 961.702C149.101 954.785 144.641 947.139 139.298 939.651Z" fill="#A78AD6"/>
<path d="M1511 763.5C1511 769.851 1505.85 775 1499.5 775C1493.15 775 1488 769.851 1488 763.5C1488 757.149 1493.15 752 1499.5 752C1505.85 752 1511 757.149 1511 763.5Z" fill="#63E17F"/>
</svg>
