<svg width="24" height="24" viewBox="0 0 24 24" fill="none" xmlns="http://www.w3.org/2000/svg">
<path d="M16.0931 20V18.3333C16.0931 17.4493 15.7482 16.6014 15.1344 15.9763C14.5205 15.3512 13.6879 15 12.8198 15H6.27327C5.40515 15 4.57258 15.3512 3.95872 15.9763C3.34486 16.6014 3 17.4493 3 18.3333V20" stroke="white" stroke-width="2" stroke-linecap="round" stroke-linejoin="round"/>
<path d="M9.54671 11.6667C11.3545 11.6667 12.82 10.1743 12.82 8.33333C12.82 6.49238 11.3545 5 9.54671 5C7.73893 5 6.27344 6.49238 6.27344 8.33333C6.27344 10.1743 7.73893 11.6667 9.54671 11.6667Z" stroke="white" stroke-width="2" stroke-linecap="round" stroke-linejoin="round"/>
<path d="M21.0028 20.0001V18.3334C21.0023 17.5948 20.7609 16.8774 20.3165 16.2937C19.8722 15.7099 19.2501 15.293 18.5479 15.1084" stroke="white" stroke-width="2" stroke-linecap="round" stroke-linejoin="round"/>
<path d="M15.2749 5.1084C15.979 5.29198 16.6031 5.70898 17.0487 6.29366C17.4944 6.87833 17.7363 7.59742 17.7363 8.33757C17.7363 9.07771 17.4944 9.7968 17.0487 10.3815C16.6031 10.9661 15.979 11.3831 15.2749 11.5667" stroke="white" stroke-width="2" stroke-linecap="round" stroke-linejoin="round"/>
</svg>
